<?xml version="1.0" encoding="utf-8"?>
<!-- Generator: Adobe Illustrator 18.1.0, SVG Export Plug-In . SVG Version: 6.00 Build 0)  -->
<svg version="1.1" id="Layer_1" xmlns="http://www.w3.org/2000/svg" xmlns:xlink="http://www.w3.org/1999/xlink" x="0px" y="0px"
	 viewBox="0 0 612 792" enable-background="new 0 0 612 792" xml:space="preserve">
<g>
	<path fill="none" stroke="#FFFFFF" stroke-miterlimit="10" d="M574.9,213.5H14.6c0-5.3-4.4-9.6-9.8-9.6V36.2c5.4,0,9.8-4.3,9.8-9.6
		h560.3c0,5.3,4.4,9.6,9.8,9.6v167.8C579.3,203.9,574.9,208.2,574.9,213.5z"/>
	<path fill="none" stroke="#FFFFFF" stroke-miterlimit="10" d="M288.4,0.7c1.2-1,3-0.9,4.4-0.1s2.3,2.1,3.2,3.4s1.9,2.6,3.2,3.4
		s3.2,1,4.4,0c0.4-0.4,0.8-1,0.6-1.5c-0.2-0.8-1.3-1-2.1-0.9c-1.6,0.3-2.9,1.3-3.7,2.7s-1.1,3-1,4.5c0.1,2.5,1.2,5,3,6.8
		c1.8,1.8,4.3,2.9,6.9,3l272.2,0c0,5.5,4.5,10,10,10v176.1c-5.5,0-10,4.5-10,10H307.3c-2.5,0.1-5,1.2-6.9,3c-1.8,1.8-2.9,4.3-3,6.8
		c-0.1,1.6,0.2,3.2,1,4.5c0.8,1.4,2.2,2.4,3.7,2.7c0.8,0.1,1.9-0.1,2.1-0.9c0.2-0.6-0.2-1.2-0.6-1.5c-1.2-1-3.1-0.8-4.4,0
		c-1.3,0.8-2.3,2.1-3.2,3.4c-0.9,1.3-1.9,2.6-3.2,3.4c-1.3,0.8-3.2,0.9-4.4-0.1"/>
	<g>
		<path fill="none" stroke="#FFFFFF" stroke-miterlimit="10" d="M301,239.3c-1.2,1-3,0.9-4.4,0.1c-1.3-0.8-2.3-2.1-3.2-3.4
			c-0.9-1.3-1.9-2.6-3.2-3.4c-1.3-0.8-3.2-1-4.4,0c-0.4,0.4-0.8,1-0.6,1.5c0.2,0.8,1.3,1,2.1,0.9c1.6-0.3,2.9-1.3,3.7-2.7
			c0.8-1.4,1.1-3,1-4.5c-0.1-2.5-1.2-5-3-6.8c-1.8-1.8-4.3-2.9-6.9-3l-272.2,0c0.5-6.7-3.5-12.4-10-10L0,32c5.5,0,10-4.5,10-10
			l272.2,0c2.5-0.1,5-1.2,6.9-3s2.9-4.3,3-6.8c0.1-1.6-0.2-3.2-1-4.5c-0.8-1.4-2.2-2.4-3.7-2.7c-0.8-0.1-1.9,0.1-2.1,0.9
			c-0.2,0.6,0.2,1.2,0.6,1.5c1.2,1,3.1,0.8,4.4,0s2.3-2.1,3.2-3.4c0.9-1.3,1.9-2.6,3.2-3.4s3.2-0.9,4.4,0.1"/>
	</g>
</g>
<g>
	<g>
		<path fill="#FFFFFF" d="M6,253.3c2.2-1.7,4.9-2.5,8-2.5c1.6,0,3.8,0.3,5.2,0.7c0.4,0.1,0.6,0.1,0.8,0.1c0,0.7,0.2,2.5,0.4,4.3
			c-0.1,0.2-0.6,0.2-0.8,0.1c-0.4-2-1.8-4.3-6-4.3c-4.5,0-8.3,2.9-8.3,9c0,6.2,3.9,9.6,8.8,9.6c3.8,0,5.5-2.5,6.2-4.2
			c0.2-0.1,0.6-0.1,0.8,0.1c-0.2,1.5-1,3.5-1.4,4c-0.4,0.1-0.7,0.2-1,0.3c-0.6,0.2-2.8,0.7-4.7,0.7c-2.7,0-5.2-0.5-7.3-2
			c-2.4-1.6-4.2-4.3-4.2-8.1C2.3,257.8,3.8,255,6,253.3z"/>
		<path fill="#FFFFFF" d="M33.1,263.6c0.9,0,1.1,0,1.1-0.8V261c0-2-0.1-2.2-1.4-2.4l-0.6-0.1c-0.2-0.1-0.2-0.6,0.1-0.7
			c1.2,0.1,2.1,0.1,3,0.1s1.9,0,3-0.1c0.2,0.1,0.3,0.6,0.1,0.7l-0.6,0.1c-1.3,0.2-1.4,0.3-1.4,2.4v6.6c0,2,0.1,2.2,1.4,2.4l0.7,0.1
			c0.2,0.1,0.2,0.6-0.1,0.7c-1.2-0.1-2.2-0.1-3.1-0.1c-0.9,0-1.9,0-3,0.1c-0.2-0.1-0.3-0.6-0.1-0.7l0.6-0.1c1.3-0.2,1.4-0.3,1.4-2.4
			v-2.3c0-0.7-0.1-0.8-1.1-0.8h-5.2c-1,0-1.1,0-1.1,0.8v2.3c0,2,0.1,2.2,1.4,2.4l0.8,0.1c0.2,0.1,0.2,0.6-0.1,0.7
			c-1.4-0.1-2.3-0.1-3.2-0.1c-0.9,0-1.9,0-2.8,0.1c-0.2-0.1-0.3-0.6-0.1-0.7l0.3-0.1c1.2-0.3,1.4-0.3,1.4-2.4V261
			c0-2-0.1-2.2-1.4-2.4l-0.7-0.1c-0.2-0.1-0.2-0.6,0.1-0.7c1.3,0.1,2.2,0.1,3.1,0.1s1.9,0,2.9-0.1c0.2,0.1,0.3,0.6,0.1,0.7l-0.4,0.1
			c-1.2,0.2-1.4,0.3-1.4,2.4v1.8c0,0.8,0.1,0.8,1.1,0.8H33.1z"/>
		<path fill="#FFFFFF" d="M44.3,266.1c-0.7,0-0.8,0-1,0.7l-0.7,1.9c-0.3,0.9-0.2,1.1,0.3,1.2l0.8,0.1c0.2,0.1,0.2,0.7-0.1,0.7
			c-0.7-0.1-1.5-0.1-2.3-0.1c-0.8,0-1.5,0.1-2.1,0.1c-0.3-0.1-0.3-0.6-0.1-0.7l0.7-0.1c0.9-0.2,1.2-0.5,1.8-1.9l2.8-6.8
			c0.5-1.2,0.7-1.9,0.8-2.5c0.5-0.2,1.1-0.8,1.2-1.1c0.2-0.1,0.4,0,0.5,0.1c0.1,0.3,0.6,1.8,1.3,3.6l2.7,7c0.4,1,0.6,1.4,1.7,1.6
			l0.5,0.1c0.3,0.1,0.2,0.7-0.1,0.7c-0.8-0.1-1.4-0.1-2.4-0.1c-1.1,0-1.9,0-2.7,0.1c-0.3-0.1-0.3-0.6-0.1-0.7l0.6-0.1
			c0.8-0.1,0.7-0.3,0.4-1.2l-0.7-1.9c-0.2-0.7-0.3-0.7-1-0.7H44.3z M46.6,265.2c0.8,0,0.9-0.1,0.5-0.9l-0.9-2.5
			c-0.2-0.7-0.4-0.9-0.4-1.1h-0.1c-0.1,0.1-0.2,0.4-0.5,1l-1.1,2.6c-0.3,0.8-0.3,0.9,0.4,0.9H46.6z"/>
		<path fill="#FFFFFF" d="M56.1,261.4c0-1.9,0-2.4-0.7-2.5l-0.9-0.1c-0.3-0.1-0.2-0.6,0-0.7c1.7-0.1,3.2-0.2,4.7-0.2
			c1.7,0,2.7,0.2,3.5,0.5c1,0.4,2.4,1.4,2.4,3.4c0,2-1.4,3-2.4,3.4c-1,0.4-2.1,0.5-2.7,0.4c-0.1-0.1-0.1-0.4,0-0.5
			c1.8-0.4,2.7-1.5,2.7-3.4c0-1.9-1.2-3-3.2-3c-1.2,0-1.2,0.2-1.2,1v7.9c0,2,0.1,2.2,1.4,2.4l0.7,0.1c0.2,0.1,0.2,0.6-0.1,0.7
			c-1.2-0.1-2.2-0.1-3.1-0.1c-0.9,0-1.9,0-2.9,0.1c-0.2-0.1-0.3-0.6-0.1-0.7l0.4-0.1c1.3-0.3,1.4-0.3,1.4-2.4V261.4z"/>
		<path fill="#FFFFFF" d="M68.7,261c0-2-0.1-2.1-1.2-2.4l-0.4-0.1c-0.2-0.1-0.2-0.6,0.1-0.7c0.9,0.1,1.8,0.1,2.7,0.1H74
			c1.3,0,2.5,0,2.7-0.1l0.3,3c-0.1,0.2-0.6,0.3-0.8,0.1c-0.2-0.8-0.4-1.2-0.5-1.4c-0.5-0.7-1.8-0.7-2.5-0.7H72c-1,0-1.1,0-1.1,0.9
			v3.3c0,0.5,0,0.6,0.6,0.6h1.4c1.6,0,1.7-0.2,1.9-1.1l0.1-0.6c0.1-0.2,0.6-0.2,0.7,0.1c-0.1,0.9-0.1,1.4-0.1,2.1
			c0,0.7,0,1.3,0.1,2.1c-0.1,0.2-0.6,0.3-0.7,0.1l-0.1-0.6c-0.2-0.9-0.4-1.1-1.9-1.1h-1.4c-0.6,0-0.6,0.1-0.6,0.7v2.1
			c0,0.9,0.1,1.8,0.3,2.1c0.3,0.3,0.8,0.4,2.5,0.4c1.9,0,3-0.1,3.8-2.4c0.2-0.2,0.7-0.1,0.8,0.1c-0.1,1.2-0.6,2.7-0.9,3.3
			c-1.9-0.1-3.4-0.1-5-0.1h-2.6c-0.9,0-1.9,0-3.3,0.1c-0.2-0.1-0.3-0.6-0.1-0.7l0.8-0.1c1.3-0.1,1.4-0.3,1.4-2.4V261z"/>
		<path fill="#FFFFFF" d="M81.9,261c0-2-0.1-2.2-1.4-2.4l-0.6-0.1c-0.2-0.1-0.2-0.6,0.1-0.7c1.1,0.1,2.1,0.1,3,0.1s1.9,0,2.8-0.1
			c0.2,0.1,0.3,0.6,0.1,0.7l-0.4,0.1c-1.2,0.3-1.4,0.3-1.4,2.4v6.3c0,0.9,0.1,1.7,0.3,2c0.3,0.3,0.7,0.5,2.3,0.5
			c1.8,0,2.9-0.1,3.7-2.4c0.2-0.2,0.7-0.1,0.8,0.1c-0.1,1.2-0.6,2.7-0.9,3.3c-1.9-0.1-3.4-0.1-4.9-0.1H83c-0.9,0-1.9,0-3,0.1
			c-0.2-0.1-0.3-0.6-0.1-0.7l0.6-0.1c1.3-0.2,1.4-0.3,1.4-2.4V261z"/>
		<path fill="#FFFFFF" d="M106.4,262.4c0,2-1.5,3.4-3.6,3.4c-2.3,0-3.6-1.5-3.6-3.3c0-2,1.5-3.5,3.6-3.5
			C105.2,259,106.4,260.6,106.4,262.4z M100.5,262.2c0,1.5,0.7,3.2,2.4,3.2c1.1,0,2.2-0.8,2.2-2.8c0-1.6-0.8-3.2-2.4-3.2
			C101.6,259.4,100.5,260.1,100.5,262.2z"/>
		<path fill="#FFFFFF" d="M108.5,260.7c0-1-0.1-1-0.6-1.2l-0.2,0c-0.1-0.1-0.1-0.3,0-0.4c0.4,0,0.9,0,1.3,0h2c0.6,0,1.2,0,1.4,0
			c0,0.2,0,0.9,0.1,1.5c-0.1,0.1-0.3,0.2-0.4,0c-0.1-0.4-0.2-0.6-0.3-0.7c-0.3-0.4-0.9-0.4-1.3-0.4h-0.6c-0.5,0-0.5,0-0.5,0.5v1.7
			c0,0.3,0,0.3,0.3,0.3h0.8c0.8,0,0.9-0.1,1-0.6l0.1-0.3c0.1-0.1,0.3-0.1,0.4,0c0,0.4,0,0.7,0,1c0,0.4,0,0.6,0,1.1
			c-0.1,0.1-0.3,0.1-0.4,0l-0.1-0.3c-0.1-0.4-0.2-0.6-1-0.6h-0.8c-0.3,0-0.3,0-0.3,0.3v1.1c0,1,0.1,1.1,0.7,1.2l0.5,0
			c0.1,0.1,0.1,0.3,0,0.4c-0.7,0-1.2,0-1.7,0c-0.5,0-0.9,0-1.5,0c-0.1,0-0.1-0.3,0-0.4l0.3,0c0.6-0.1,0.7-0.2,0.7-1.2V260.7z"/>
		<path fill="#FFFFFF" d="M119.6,260c0-0.4,0-0.4-0.3-0.4h-0.5c-0.9,0-1.3,0.1-1.6,1.1c-0.1,0.1-0.3,0-0.4-0.1
			c0.2-0.6,0.3-1.4,0.4-1.7c0.1-0.1,0.2-0.1,0.3,0c0,0.3,0.2,0.3,0.8,0.3h4.1c0.5,0,0.6,0,0.8-0.3c0.1-0.1,0.2,0,0.3,0
			c-0.1,0.4-0.2,1.2-0.1,1.7c-0.1,0.1-0.3,0.1-0.4,0c-0.1-1-0.5-1.1-1.4-1.1H121c-0.3,0-0.3,0-0.3,0.4v4c0,1,0.1,1.1,0.7,1.2l0.4,0
			c0.1,0.1,0.1,0.3,0,0.4c-0.6,0-1.2,0-1.6,0c-0.5,0-1,0-1.6,0c-0.1,0-0.1-0.3,0-0.4l0.4,0c0.6-0.1,0.7-0.2,0.7-1.2V260z"/>
		<path fill="#FFFFFF" d="M129.3,262c0.5,0,0.5,0,0.5-0.4v-0.9c0-1-0.1-1.1-0.7-1.2l-0.3,0c-0.1-0.1-0.1-0.3,0-0.4c0.6,0,1,0,1.5,0
			s0.9,0,1.5,0c0.1,0,0.1,0.3,0,0.4l-0.3,0c-0.6,0.1-0.7,0.2-0.7,1.2v3.3c0,1,0.1,1.1,0.7,1.2l0.3,0c0.1,0.1,0.1,0.3,0,0.4
			c-0.6,0-1.1,0-1.6,0c-0.5,0-0.9,0-1.5,0c-0.1,0-0.1-0.3,0-0.4l0.3,0c0.6-0.1,0.7-0.2,0.7-1.2v-1.2c0-0.4,0-0.4-0.5-0.4h-2.6
			c-0.5,0-0.5,0-0.5,0.4v1.2c0,1,0.1,1.1,0.7,1.2l0.4,0c0.1,0.1,0.1,0.3,0,0.4c-0.7,0-1.2,0-1.6,0c-0.5,0-0.9,0-1.4,0
			c-0.1,0-0.1-0.3,0-0.4l0.2,0c0.6-0.2,0.7-0.2,0.7-1.2v-3.3c0-1-0.1-1.1-0.7-1.2l-0.3,0c-0.1-0.1-0.1-0.3,0-0.4c0.6,0,1.1,0,1.6,0
			s0.9,0,1.4,0c0.1,0,0.1,0.3,0,0.4l-0.2,0c-0.6,0.1-0.7,0.2-0.7,1.2v0.9c0,0.4,0.1,0.4,0.5,0.4H129.3z"/>
		<path fill="#FFFFFF" d="M134.1,260.7c0-1-0.1-1.1-0.6-1.2l-0.2,0c-0.1-0.1-0.1-0.3,0-0.4c0.4,0,0.9,0,1.4,0h2.1c0.6,0,1.2,0,1.4,0
			l0.2,1.5c-0.1,0.1-0.3,0.1-0.4,0c-0.1-0.4-0.2-0.6-0.3-0.7c-0.2-0.4-0.9-0.4-1.3-0.4h-0.6c-0.5,0-0.5,0-0.5,0.5v1.6
			c0,0.3,0,0.3,0.3,0.3h0.7c0.8,0,0.9-0.1,1-0.6l0.1-0.3c0.1-0.1,0.3-0.1,0.4,0c0,0.4,0,0.7,0,1c0,0.4,0,0.6,0,1.1
			c-0.1,0.1-0.3,0.1-0.4,0l-0.1-0.3c-0.1-0.4-0.2-0.6-1-0.6h-0.7c-0.3,0-0.3,0-0.3,0.3v1.1c0,0.4,0,0.9,0.2,1.1
			c0.1,0.1,0.4,0.2,1.2,0.2c0.9,0,1.5,0,1.9-1.2c0.1-0.1,0.3-0.1,0.4,0.1c-0.1,0.6-0.3,1.4-0.4,1.6c-0.9,0-1.7,0-2.5,0h-1.3
			c-0.5,0-0.9,0-1.6,0c-0.1,0-0.1-0.3,0-0.4l0.4,0c0.6-0.1,0.7-0.2,0.7-1.2V260.7z"/>
		<path fill="#FFFFFF" d="M152.7,259.6c0,0.8,0.1,0.8,1,0.8h2c1.2,0,2.2-0.1,2.5-0.2c0.3-0.1,0.6-0.3,0.7-1l0.3-1.2
			c0.1-0.2,0.6-0.2,0.8,0c0,0.7-0.1,1.9-0.1,3c0,1.1,0.1,2.2,0.1,2.9c-0.1,0.2-0.6,0.2-0.8,0l-0.3-1.1c-0.1-0.5-0.4-0.9-0.9-1.1
			c-0.4-0.1-1.2-0.1-2.3-0.1h-2c-0.9,0-1,0-1,0.8v4.1c0,3.1,0.1,3.5,1.8,3.7l1,0.1c0.2,0.1,0.1,0.6-0.1,0.7
			c-1.7-0.1-2.7-0.1-3.9-0.1c-1.3,0-2.3,0-3.7,0.1c-0.2-0.1-0.2-0.6-0.1-0.7l0.7-0.1c1.7-0.2,1.8-0.6,1.8-3.7v-10.6
			c0-3.1-0.1-3.5-1.8-3.7l-0.5-0.1c-0.2-0.1-0.1-0.6,0.1-0.7c1.2,0.1,2.2,0.1,3.4,0.1h5.4c1.9,0,3.6,0,4-0.1c0,1.4,0,2.8,0.1,3.9
			c-0.1,0.2-0.5,0.3-0.7,0.1c-0.2-1.3-0.6-2.4-2.1-2.8c-0.6-0.2-1.6-0.2-2.9-0.2h-1.8c-0.9,0-0.9,0.1-0.9,1.2V259.6z"/>
		<path fill="#FFFFFF" d="M165.5,261c0-2-0.1-2.2-1.4-2.4l-0.6-0.1c-0.2-0.1-0.2-0.6,0.1-0.7c1.1,0.1,2.1,0.1,3,0.1s1.9,0,2.8-0.1
			c0.2,0.1,0.3,0.6,0.1,0.7l-0.4,0.1c-1.2,0.3-1.4,0.3-1.4,2.4v6.3c0,0.9,0.1,1.7,0.3,2c0.3,0.3,0.7,0.5,2.3,0.5
			c1.8,0,2.9-0.1,3.7-2.4c0.2-0.2,0.7-0.1,0.8,0.1c-0.1,1.2-0.6,2.7-0.9,3.3c-1.9-0.1-3.4-0.1-4.9-0.1h-2.4c-0.9,0-1.9,0-3,0.1
			c-0.2-0.1-0.3-0.6-0.1-0.7l0.6-0.1c1.3-0.2,1.4-0.3,1.4-2.4V261z"/>
		<path fill="#FFFFFF" d="M190.2,264.2c0,4-3,6.9-7.2,6.9c-4.6,0-7.3-3-7.3-6.7c0-3.9,3-6.9,7.3-6.9
			C187.8,257.5,190.2,260.6,190.2,264.2z M178.4,263.9c0,3,1.4,6.3,4.8,6.3c2.2,0,4.4-1.5,4.4-5.6c0-3.2-1.5-6.3-4.7-6.3
			C180.7,258.3,178.4,259.8,178.4,263.9z"/>
		<path fill="#FFFFFF" d="M192.3,259.9c-0.3-0.6-0.6-1-1.4-1.2l-0.6-0.2c-0.2-0.1-0.2-0.6,0.1-0.7c0.6,0.1,1.6,0.1,2.2,0.1
			c0.9,0,1.6,0,2.6-0.1c0.3,0.1,0.2,0.6,0,0.7l-0.4,0.1c-0.8,0.2-0.6,0.4,0.1,1.9l2.7,5.5c0.5,0.9,0.9,1.7,1.1,2.1
			c0.2-0.4,0.5-1,1.1-2.2l0.5-1.1c0.2-0.4,0.2-0.5,0-1l-2.2-4.4c-0.3-0.6-0.6-0.7-1.3-0.9l-0.5-0.1c-0.2-0.1-0.2-0.6,0.1-0.7
			c0.6,0.1,1.4,0.1,2.3,0.1c0.9,0,1.7,0,2.2-0.1c0.2,0.1,0.2,0.6,0,0.7l-0.4,0.1c-0.5,0.1-0.6,0.3-0.3,0.9l0.3,0.6l1.1,2.2
			c0.3-0.6,0.6-1.1,0.9-1.7l0.5-1.1c0.3-0.7,0.2-0.8-0.5-0.9l-0.5-0.1c-0.2-0.1-0.2-0.6,0-0.7c0.4,0.1,1.2,0.1,2,0.1
			c0.7,0,1.5,0,2-0.1c0.2,0.1,0.2,0.6,0,0.7l-0.5,0.1c-1,0.2-1.3,0.8-1.7,1.5c-0.4,0.7-1.2,2.2-1.5,2.7c-0.2,0.4-0.3,0.5,0,1.1
			l0.8,1.6c0.6,1.2,1,2,1.3,2.5c0.2-0.5,0.5-1,1.2-2.7l2.1-4.9c0.7-1.7,0.8-1.8,0-1.9l-0.6-0.1c-0.2-0.2-0.2-0.6,0-0.7
			c0.8,0.1,1.4,0.1,2.2,0.1c0.7,0,1.4,0,2.2-0.1c0.2,0.1,0.3,0.6,0,0.7l-0.8,0.2c-0.9,0.2-1.1,0.5-2,2.4l-2.8,6
			c-0.6,1.3-1.1,2.6-1.7,3.8c-0.1,0.1-0.2,0.1-0.4,0.1c-0.1,0-0.2,0-0.4-0.1c-0.3-0.9-2.1-4.7-2.6-5.4c-0.9,1.9-2.3,4.6-2.7,5.4
			c-0.1,0.1-0.2,0.1-0.4,0.1c-0.1,0-0.2,0-0.4-0.1c-0.3-0.8-1.1-2.5-1.4-3.1L192.3,259.9z"/>
		<path fill="#FFFFFF" d="M214.1,261c0-2-0.1-2.1-1.2-2.4l-0.4-0.1c-0.2-0.1-0.2-0.6,0.1-0.7c0.9,0.1,1.8,0.1,2.7,0.1h4.2
			c1.3,0,2.5,0,2.7-0.1l0.3,3c-0.1,0.2-0.6,0.3-0.8,0.1c-0.2-0.8-0.4-1.2-0.5-1.4c-0.5-0.7-1.8-0.7-2.5-0.7h-1.3c-1,0-1.1,0-1.1,0.9
			v3.3c0,0.5,0,0.6,0.6,0.6h1.4c1.6,0,1.7-0.2,1.9-1.1l0.1-0.6c0.1-0.2,0.6-0.2,0.7,0.1c-0.1,0.9-0.1,1.4-0.1,2.1
			c0,0.7,0,1.3,0.1,2.1c-0.1,0.2-0.6,0.3-0.7,0.1l-0.1-0.6c-0.2-0.9-0.4-1.1-1.9-1.1h-1.4c-0.6,0-0.6,0.1-0.6,0.7v2.1
			c0,0.9,0.1,1.8,0.3,2.1c0.3,0.3,0.8,0.4,2.5,0.4c1.9,0,3-0.1,3.8-2.4c0.2-0.2,0.7-0.1,0.8,0.1c-0.1,1.2-0.6,2.7-0.9,3.3
			c-1.9-0.1-3.4-0.1-5-0.1h-2.6c-0.9,0-1.9,0-3.3,0.1c-0.2-0.1-0.3-0.6-0.1-0.7l0.8-0.1c1.3-0.1,1.4-0.3,1.4-2.4V261z"/>
		<path fill="#FFFFFF" d="M227.3,261.4c0-1.9,0-2.4-0.7-2.5l-0.8-0.1c-0.2,0-0.3-0.6,0-0.7c1.6-0.1,3.3-0.2,4.9-0.2
			c2.7,0,5.7,0.4,5.7,3.5c0,1.9-1.5,2.7-2.6,3.2c-0.1,0.1-0.1,0.3,0,0.4c1.5,2.5,2.8,3.9,3.7,4.7c0.5,0.4,1.1,0.6,1.6,0.6
			c0.1,0.1,0.1,0.4,0,0.5c-0.3,0.1-0.7,0.1-1.2,0.1c-1.8,0-2.8-0.6-4.1-2.2c-0.7-0.9-1.5-2.2-2.2-3.2c-0.2-0.4-0.7-0.5-1.2-0.5
			c-0.8,0-0.8,0.1-0.8,0.5v2.1c0,2,0.1,2.2,1.4,2.4l0.7,0.1c0.2,0.1,0.2,0.6-0.1,0.7c-1.2-0.1-2.2-0.1-3.1-0.1c-0.9,0-1.9,0-2.9,0.1
			c-0.3-0.1-0.3-0.6-0.1-0.7l0.4-0.1c1.3-0.3,1.4-0.3,1.4-2.4V261.4z M229.5,263.5c0,0.7,0,0.7,1.5,0.7c1.9,0,2.9-0.8,2.9-2.8
			c0-1.5-1-2.8-3.1-2.8c-1.1,0-1.3,0.1-1.3,0.8V263.5z"/>
		<path fill="#FFFFFF" d="M243,264.7c-1.4-0.7-2.6-1.9-2.6-3.5c0-2.2,1.7-3.7,4.6-3.7c1,0,1.7,0.3,2.7,0.4c0.2,0.5,0.4,1.6,0.4,2.9
			c-0.1,0.2-0.6,0.3-0.8,0.1c-0.2-1-1-2.5-2.7-2.5s-2.4,1-2.4,2c0,1.1,0.8,1.7,2,2.3l1.8,0.9c1.1,0.5,2.4,1.8,2.4,3.7
			c0,2.3-1.9,3.7-4.8,3.7c-1.8,0-3-0.6-3.4-0.9c-0.3-0.4-0.6-1.5-0.6-3c0.1-0.3,0.6-0.3,0.8-0.1c0.2,1.1,1.5,3.2,3.5,3.2
			c1.5,0,2.5-0.8,2.5-2.1c0-0.9-0.4-1.9-2.1-2.8L243,264.7z"/>
	</g>
</g>
<g>
	<g>
		<path fill="#AA8E72" d="M6,293.3c2.2-1.7,4.9-2.5,8-2.5c1.6,0,3.8,0.3,5.2,0.7c0.4,0.1,0.6,0.1,0.8,0.1c0,0.7,0.2,2.5,0.4,4.3
			c-0.1,0.2-0.6,0.2-0.8,0.1c-0.4-2-1.8-4.3-6-4.3c-4.5,0-8.3,2.9-8.3,9c0,6.2,3.9,9.6,8.8,9.6c3.8,0,5.5-2.5,6.2-4.2
			c0.2-0.1,0.6-0.1,0.8,0.1c-0.2,1.5-1,3.5-1.4,4c-0.4,0.1-0.7,0.2-1,0.3c-0.6,0.2-2.8,0.7-4.7,0.7c-2.7,0-5.2-0.5-7.3-2
			c-2.4-1.6-4.2-4.3-4.2-8.1C2.3,297.8,3.8,295,6,293.3z"/>
		<path fill="#AA8E72" d="M33.1,303.6c0.9,0,1.1,0,1.1-0.8V301c0-2-0.1-2.2-1.4-2.4l-0.6-0.1c-0.2-0.1-0.2-0.6,0.1-0.7
			c1.2,0.1,2.1,0.1,3,0.1s1.9,0,3-0.1c0.2,0.1,0.3,0.6,0.1,0.7l-0.6,0.1c-1.3,0.2-1.4,0.3-1.4,2.4v6.6c0,2,0.1,2.2,1.4,2.4l0.7,0.1
			c0.2,0.1,0.2,0.6-0.1,0.7c-1.2-0.1-2.2-0.1-3.1-0.1c-0.9,0-1.9,0-3,0.1c-0.2-0.1-0.3-0.6-0.1-0.7l0.6-0.1c1.3-0.2,1.4-0.3,1.4-2.4
			v-2.3c0-0.7-0.1-0.8-1.1-0.8h-5.2c-1,0-1.1,0-1.1,0.8v2.3c0,2,0.1,2.2,1.4,2.4l0.8,0.1c0.2,0.1,0.2,0.6-0.1,0.7
			c-1.4-0.1-2.3-0.1-3.2-0.1c-0.9,0-1.9,0-2.8,0.1c-0.2-0.1-0.3-0.6-0.1-0.7l0.3-0.1c1.2-0.3,1.4-0.3,1.4-2.4V301
			c0-2-0.1-2.2-1.4-2.4l-0.7-0.1c-0.2-0.1-0.2-0.6,0.1-0.7c1.3,0.1,2.2,0.1,3.1,0.1s1.9,0,2.9-0.1c0.2,0.1,0.3,0.6,0.1,0.7l-0.4,0.1
			c-1.2,0.2-1.4,0.3-1.4,2.4v1.8c0,0.8,0.1,0.8,1.1,0.8H33.1z"/>
		<path fill="#AA8E72" d="M44.3,306.1c-0.7,0-0.8,0-1,0.7l-0.7,1.9c-0.3,0.9-0.2,1.1,0.3,1.2l0.8,0.1c0.2,0.1,0.2,0.7-0.1,0.7
			c-0.7-0.1-1.5-0.1-2.3-0.1c-0.8,0-1.5,0.1-2.1,0.1c-0.3-0.1-0.3-0.6-0.1-0.7l0.7-0.1c0.9-0.2,1.2-0.5,1.8-1.9l2.8-6.8
			c0.5-1.2,0.7-1.9,0.8-2.5c0.5-0.2,1.1-0.8,1.2-1.1c0.2-0.1,0.4,0,0.5,0.1c0.1,0.3,0.6,1.8,1.3,3.6l2.7,7c0.4,1,0.6,1.4,1.7,1.6
			l0.5,0.1c0.3,0.1,0.2,0.7-0.1,0.7c-0.8-0.1-1.4-0.1-2.4-0.1c-1.1,0-1.9,0-2.7,0.1c-0.3-0.1-0.3-0.6-0.1-0.7l0.6-0.1
			c0.8-0.1,0.7-0.3,0.4-1.2l-0.7-1.9c-0.2-0.7-0.3-0.7-1-0.7H44.3z M46.6,305.2c0.8,0,0.9-0.1,0.5-0.9l-0.9-2.5
			c-0.2-0.7-0.4-0.9-0.4-1.1h-0.1c-0.1,0.1-0.2,0.4-0.5,1l-1.1,2.6c-0.3,0.8-0.3,0.9,0.4,0.9H46.6z"/>
		<path fill="#AA8E72" d="M56.1,301.4c0-1.9,0-2.4-0.7-2.5l-0.9-0.1c-0.3-0.1-0.2-0.6,0-0.7c1.7-0.1,3.2-0.2,4.7-0.2
			c1.7,0,2.7,0.2,3.5,0.5c1,0.4,2.4,1.4,2.4,3.4c0,2-1.4,3-2.4,3.4c-1,0.4-2.1,0.5-2.7,0.4c-0.1-0.1-0.1-0.4,0-0.5
			c1.8-0.4,2.7-1.5,2.7-3.4c0-1.9-1.2-3-3.2-3c-1.2,0-1.2,0.2-1.2,1v7.9c0,2,0.1,2.2,1.4,2.4l0.7,0.1c0.2,0.1,0.2,0.6-0.1,0.7
			c-1.2-0.1-2.2-0.1-3.1-0.1c-0.9,0-1.9,0-2.9,0.1c-0.2-0.1-0.3-0.6-0.1-0.7l0.4-0.1c1.3-0.3,1.4-0.3,1.4-2.4V301.4z"/>
		<path fill="#AA8E72" d="M68.7,301c0-2-0.1-2.1-1.2-2.4l-0.4-0.1c-0.2-0.1-0.2-0.6,0.1-0.7c0.9,0.1,1.8,0.1,2.7,0.1H74
			c1.3,0,2.5,0,2.7-0.1l0.3,3c-0.1,0.2-0.6,0.3-0.8,0.1c-0.2-0.8-0.4-1.2-0.5-1.4c-0.5-0.7-1.8-0.7-2.5-0.7H72c-1,0-1.1,0-1.1,0.9
			v3.3c0,0.5,0,0.6,0.6,0.6h1.4c1.6,0,1.7-0.2,1.9-1.1l0.1-0.6c0.1-0.2,0.6-0.2,0.7,0.1c-0.1,0.9-0.1,1.4-0.1,2.1
			c0,0.7,0,1.3,0.1,2.1c-0.1,0.2-0.6,0.3-0.7,0.1l-0.1-0.6c-0.2-0.9-0.4-1.1-1.9-1.1h-1.4c-0.6,0-0.6,0.1-0.6,0.7v2.1
			c0,0.9,0.1,1.8,0.3,2.1c0.3,0.3,0.8,0.4,2.5,0.4c1.9,0,3-0.1,3.8-2.4c0.2-0.2,0.7-0.1,0.8,0.1c-0.1,1.2-0.6,2.7-0.9,3.3
			c-1.9-0.1-3.4-0.1-5-0.1h-2.6c-0.9,0-1.9,0-3.3,0.1c-0.2-0.1-0.3-0.6-0.1-0.7l0.8-0.1c1.3-0.1,1.4-0.3,1.4-2.4V301z"/>
		<path fill="#AA8E72" d="M81.9,301c0-2-0.1-2.2-1.4-2.4l-0.6-0.1c-0.2-0.1-0.2-0.6,0.1-0.7c1.1,0.1,2.1,0.1,3,0.1s1.9,0,2.8-0.1
			c0.2,0.1,0.3,0.6,0.1,0.7l-0.4,0.1c-1.2,0.3-1.4,0.3-1.4,2.4v6.3c0,0.9,0.1,1.7,0.3,2c0.3,0.3,0.7,0.5,2.3,0.5
			c1.8,0,2.9-0.1,3.7-2.4c0.2-0.2,0.7-0.1,0.8,0.1c-0.1,1.2-0.6,2.7-0.9,3.3c-1.9-0.1-3.4-0.1-4.9-0.1H83c-0.9,0-1.9,0-3,0.1
			c-0.2-0.1-0.3-0.6-0.1-0.7l0.6-0.1c1.3-0.2,1.4-0.3,1.4-2.4V301z"/>
		<path fill="#AA8E72" d="M106.4,302.4c0,2-1.5,3.4-3.6,3.4c-2.3,0-3.6-1.5-3.6-3.3c0-2,1.5-3.5,3.6-3.5
			C105.2,299,106.4,300.6,106.4,302.4z M100.5,302.2c0,1.5,0.7,3.2,2.4,3.2c1.1,0,2.2-0.8,2.2-2.8c0-1.6-0.8-3.2-2.4-3.2
			C101.6,299.4,100.5,300.1,100.5,302.2z"/>
		<path fill="#AA8E72" d="M108.5,300.7c0-1-0.1-1-0.6-1.2l-0.2,0c-0.1-0.1-0.1-0.3,0-0.4c0.4,0,0.9,0,1.3,0h2c0.6,0,1.2,0,1.4,0
			c0,0.2,0,0.9,0.1,1.5c-0.1,0.1-0.3,0.2-0.4,0c-0.1-0.4-0.2-0.6-0.3-0.7c-0.3-0.4-0.9-0.4-1.3-0.4h-0.6c-0.5,0-0.5,0-0.5,0.5v1.7
			c0,0.3,0,0.3,0.3,0.3h0.8c0.8,0,0.9-0.1,1-0.6l0.1-0.3c0.1-0.1,0.3-0.1,0.4,0c0,0.4,0,0.7,0,1c0,0.4,0,0.6,0,1.1
			c-0.1,0.1-0.3,0.1-0.4,0l-0.1-0.3c-0.1-0.4-0.2-0.6-1-0.6h-0.8c-0.3,0-0.3,0-0.3,0.3v1.1c0,1,0.1,1.1,0.7,1.2l0.5,0
			c0.1,0.1,0.1,0.3,0,0.4c-0.7,0-1.2,0-1.7,0c-0.5,0-0.9,0-1.5,0c-0.1,0-0.1-0.3,0-0.4l0.3,0c0.6-0.1,0.7-0.2,0.7-1.2V300.7z"/>
		<path fill="#AA8E72" d="M119.6,300c0-0.4,0-0.4-0.3-0.4h-0.5c-0.9,0-1.3,0.1-1.6,1.1c-0.1,0.1-0.3,0-0.4-0.1
			c0.2-0.6,0.3-1.4,0.4-1.7c0.1-0.1,0.2-0.1,0.3,0c0,0.3,0.2,0.3,0.8,0.3h4.1c0.5,0,0.6,0,0.8-0.3c0.1-0.1,0.2,0,0.3,0
			c-0.1,0.4-0.2,1.2-0.1,1.7c-0.1,0.1-0.3,0.1-0.4,0c-0.1-1-0.5-1.1-1.4-1.1H121c-0.3,0-0.3,0-0.3,0.4v4c0,1,0.1,1.1,0.7,1.2l0.4,0
			c0.1,0.1,0.1,0.3,0,0.4c-0.6,0-1.2,0-1.6,0c-0.5,0-1,0-1.6,0c-0.1,0-0.1-0.3,0-0.4l0.4,0c0.6-0.1,0.7-0.2,0.7-1.2V300z"/>
		<path fill="#AA8E72" d="M129.3,302c0.5,0,0.5,0,0.5-0.4v-0.9c0-1-0.1-1.1-0.7-1.2l-0.3,0c-0.1-0.1-0.1-0.3,0-0.4c0.6,0,1,0,1.5,0
			s0.9,0,1.5,0c0.1,0,0.1,0.3,0,0.4l-0.3,0c-0.6,0.1-0.7,0.2-0.7,1.2v3.3c0,1,0.1,1.1,0.7,1.2l0.3,0c0.1,0.1,0.1,0.3,0,0.4
			c-0.6,0-1.1,0-1.6,0c-0.5,0-0.9,0-1.5,0c-0.1,0-0.1-0.3,0-0.4l0.3,0c0.6-0.1,0.7-0.2,0.7-1.2v-1.2c0-0.4,0-0.4-0.5-0.4h-2.6
			c-0.5,0-0.5,0-0.5,0.4v1.2c0,1,0.1,1.1,0.7,1.2l0.4,0c0.1,0.1,0.1,0.3,0,0.4c-0.7,0-1.2,0-1.6,0c-0.5,0-0.9,0-1.4,0
			c-0.1,0-0.1-0.3,0-0.4l0.2,0c0.6-0.2,0.7-0.2,0.7-1.2v-3.3c0-1-0.1-1.1-0.7-1.2l-0.3,0c-0.1-0.1-0.1-0.3,0-0.4c0.6,0,1.1,0,1.6,0
			s0.9,0,1.4,0c0.1,0,0.1,0.3,0,0.4l-0.2,0c-0.6,0.1-0.7,0.2-0.7,1.2v0.9c0,0.4,0.1,0.4,0.5,0.4H129.3z"/>
		<path fill="#AA8E72" d="M134.1,300.7c0-1-0.1-1.1-0.6-1.2l-0.2,0c-0.1-0.1-0.1-0.3,0-0.4c0.4,0,0.9,0,1.4,0h2.1c0.6,0,1.2,0,1.4,0
			l0.2,1.5c-0.1,0.1-0.3,0.1-0.4,0c-0.1-0.4-0.2-0.6-0.3-0.7c-0.2-0.4-0.9-0.4-1.3-0.4h-0.6c-0.5,0-0.5,0-0.5,0.5v1.6
			c0,0.3,0,0.3,0.3,0.3h0.7c0.8,0,0.9-0.1,1-0.6l0.1-0.3c0.1-0.1,0.3-0.1,0.4,0c0,0.4,0,0.7,0,1c0,0.4,0,0.6,0,1.1
			c-0.1,0.1-0.3,0.1-0.4,0l-0.1-0.3c-0.1-0.4-0.2-0.6-1-0.6h-0.7c-0.3,0-0.3,0-0.3,0.3v1.1c0,0.4,0,0.9,0.2,1.1
			c0.1,0.1,0.4,0.2,1.2,0.2c0.9,0,1.5,0,1.9-1.2c0.1-0.1,0.3-0.1,0.4,0.1c-0.1,0.6-0.3,1.4-0.4,1.6c-0.9,0-1.7,0-2.5,0h-1.3
			c-0.5,0-0.9,0-1.6,0c-0.1,0-0.1-0.3,0-0.4l0.4,0c0.6-0.1,0.7-0.2,0.7-1.2V300.7z"/>
		<path fill="#AA8E72" d="M152.7,299.6c0,0.8,0.1,0.8,1,0.8h2c1.2,0,2.2-0.1,2.5-0.2c0.3-0.1,0.6-0.3,0.7-1l0.3-1.2
			c0.1-0.2,0.6-0.2,0.8,0c0,0.7-0.1,1.9-0.1,3c0,1.1,0.1,2.2,0.1,2.9c-0.1,0.2-0.6,0.2-0.8,0l-0.3-1.1c-0.1-0.5-0.4-0.9-0.9-1.1
			c-0.4-0.1-1.2-0.1-2.3-0.1h-2c-0.9,0-1,0-1,0.8v4.1c0,3.1,0.1,3.5,1.8,3.7l1,0.1c0.2,0.1,0.1,0.6-0.1,0.7
			c-1.7-0.1-2.7-0.1-3.9-0.1c-1.3,0-2.3,0-3.7,0.1c-0.2-0.1-0.2-0.6-0.1-0.7l0.7-0.1c1.7-0.2,1.8-0.6,1.8-3.7v-10.6
			c0-3.1-0.1-3.5-1.8-3.7l-0.5-0.1c-0.2-0.1-0.1-0.6,0.1-0.7c1.2,0.1,2.2,0.1,3.4,0.1h5.4c1.9,0,3.6,0,4-0.1c0,1.4,0,2.8,0.1,3.9
			c-0.1,0.2-0.5,0.3-0.7,0.1c-0.2-1.3-0.6-2.4-2.1-2.8c-0.6-0.2-1.6-0.2-2.9-0.2h-1.8c-0.9,0-0.9,0.1-0.9,1.2V299.6z"/>
		<path fill="#AA8E72" d="M165.5,301c0-2-0.1-2.2-1.4-2.4l-0.6-0.1c-0.2-0.1-0.2-0.6,0.1-0.7c1.1,0.1,2.1,0.1,3,0.1s1.9,0,2.8-0.1
			c0.2,0.1,0.3,0.6,0.1,0.7l-0.4,0.1c-1.2,0.3-1.4,0.3-1.4,2.4v6.3c0,0.9,0.1,1.7,0.3,2c0.3,0.3,0.7,0.5,2.3,0.5
			c1.8,0,2.9-0.1,3.7-2.4c0.2-0.2,0.7-0.1,0.8,0.1c-0.1,1.2-0.6,2.7-0.9,3.3c-1.9-0.1-3.4-0.1-4.9-0.1h-2.4c-0.9,0-1.9,0-3,0.1
			c-0.2-0.1-0.3-0.6-0.1-0.7l0.6-0.1c1.3-0.2,1.4-0.3,1.4-2.4V301z"/>
		<path fill="#AA8E72" d="M190.2,304.2c0,4-3,6.9-7.2,6.9c-4.6,0-7.3-3-7.3-6.7c0-3.9,3-6.9,7.3-6.9
			C187.8,297.5,190.2,300.6,190.2,304.2z M178.4,303.9c0,3,1.4,6.3,4.8,6.3c2.2,0,4.4-1.5,4.4-5.6c0-3.2-1.5-6.3-4.7-6.3
			C180.7,298.3,178.4,299.8,178.4,303.9z"/>
		<path fill="#AA8E72" d="M192.3,299.9c-0.3-0.6-0.6-1-1.4-1.2l-0.6-0.2c-0.2-0.1-0.2-0.6,0.1-0.7c0.6,0.1,1.6,0.1,2.2,0.1
			c0.9,0,1.6,0,2.6-0.1c0.3,0.1,0.2,0.6,0,0.7l-0.4,0.1c-0.8,0.2-0.6,0.4,0.1,1.9l2.7,5.5c0.5,0.9,0.9,1.7,1.1,2.1
			c0.2-0.4,0.5-1,1.1-2.2l0.5-1.1c0.2-0.4,0.2-0.5,0-1l-2.2-4.4c-0.3-0.6-0.6-0.7-1.3-0.9l-0.5-0.1c-0.2-0.1-0.2-0.6,0.1-0.7
			c0.6,0.1,1.4,0.1,2.3,0.1c0.9,0,1.7,0,2.2-0.1c0.2,0.1,0.2,0.6,0,0.7l-0.4,0.1c-0.5,0.1-0.6,0.3-0.3,0.9l0.3,0.6l1.1,2.2
			c0.3-0.6,0.6-1.1,0.9-1.7l0.5-1.1c0.3-0.7,0.2-0.8-0.5-0.9l-0.5-0.1c-0.2-0.1-0.2-0.6,0-0.7c0.4,0.1,1.2,0.1,2,0.1
			c0.7,0,1.5,0,2-0.1c0.2,0.1,0.2,0.6,0,0.7l-0.5,0.1c-1,0.2-1.3,0.8-1.7,1.5c-0.4,0.7-1.2,2.2-1.5,2.7c-0.2,0.4-0.3,0.5,0,1.1
			l0.8,1.6c0.6,1.2,1,2,1.3,2.5c0.2-0.5,0.5-1,1.2-2.7l2.1-4.9c0.7-1.7,0.8-1.8,0-1.9l-0.6-0.1c-0.2-0.2-0.2-0.6,0-0.7
			c0.8,0.1,1.4,0.1,2.2,0.1c0.7,0,1.4,0,2.2-0.1c0.2,0.1,0.3,0.6,0,0.7l-0.8,0.2c-0.9,0.2-1.1,0.5-2,2.4l-2.8,6
			c-0.6,1.3-1.1,2.6-1.7,3.8c-0.1,0.1-0.2,0.1-0.4,0.1c-0.1,0-0.2,0-0.4-0.1c-0.3-0.9-2.1-4.7-2.6-5.4c-0.9,1.9-2.3,4.6-2.7,5.4
			c-0.1,0.1-0.2,0.1-0.4,0.1c-0.1,0-0.2,0-0.4-0.1c-0.3-0.8-1.1-2.5-1.4-3.1L192.3,299.9z"/>
		<path fill="#AA8E72" d="M214.1,301c0-2-0.1-2.1-1.2-2.4l-0.4-0.1c-0.2-0.1-0.2-0.6,0.1-0.7c0.9,0.1,1.8,0.1,2.7,0.1h4.2
			c1.3,0,2.5,0,2.7-0.1l0.3,3c-0.1,0.2-0.6,0.3-0.8,0.1c-0.2-0.8-0.4-1.2-0.5-1.4c-0.5-0.7-1.8-0.7-2.5-0.7h-1.3c-1,0-1.1,0-1.1,0.9
			v3.3c0,0.5,0,0.6,0.6,0.6h1.4c1.6,0,1.7-0.2,1.9-1.1l0.1-0.6c0.1-0.2,0.6-0.2,0.7,0.1c-0.1,0.9-0.1,1.4-0.1,2.1
			c0,0.7,0,1.3,0.1,2.1c-0.1,0.2-0.6,0.3-0.7,0.1l-0.1-0.6c-0.2-0.9-0.4-1.1-1.9-1.1h-1.4c-0.6,0-0.6,0.1-0.6,0.7v2.1
			c0,0.9,0.1,1.8,0.3,2.1c0.3,0.3,0.8,0.4,2.5,0.4c1.9,0,3-0.1,3.8-2.4c0.2-0.2,0.7-0.1,0.8,0.1c-0.1,1.2-0.6,2.7-0.9,3.3
			c-1.9-0.1-3.4-0.1-5-0.1h-2.6c-0.9,0-1.9,0-3.3,0.1c-0.2-0.1-0.3-0.6-0.1-0.7l0.8-0.1c1.3-0.1,1.4-0.3,1.4-2.4V301z"/>
		<path fill="#AA8E72" d="M227.3,301.4c0-1.9,0-2.4-0.7-2.5l-0.8-0.1c-0.2,0-0.3-0.6,0-0.7c1.6-0.1,3.3-0.2,4.9-0.2
			c2.7,0,5.7,0.4,5.7,3.5c0,1.9-1.5,2.7-2.6,3.2c-0.1,0.1-0.1,0.3,0,0.4c1.5,2.5,2.8,3.9,3.7,4.7c0.5,0.4,1.1,0.6,1.6,0.6
			c0.1,0.1,0.1,0.4,0,0.5c-0.3,0.1-0.7,0.1-1.2,0.1c-1.8,0-2.8-0.6-4.1-2.2c-0.7-0.9-1.5-2.2-2.2-3.2c-0.2-0.4-0.7-0.5-1.2-0.5
			c-0.8,0-0.8,0.1-0.8,0.5v2.1c0,2,0.1,2.2,1.4,2.4l0.7,0.1c0.2,0.1,0.2,0.6-0.1,0.7c-1.2-0.1-2.2-0.1-3.1-0.1c-0.9,0-1.9,0-2.9,0.1
			c-0.3-0.1-0.3-0.6-0.1-0.7l0.4-0.1c1.3-0.3,1.4-0.3,1.4-2.4V301.4z M229.5,303.5c0,0.7,0,0.7,1.5,0.7c1.9,0,2.9-0.8,2.9-2.8
			c0-1.5-1-2.8-3.1-2.8c-1.1,0-1.3,0.1-1.3,0.8V303.5z"/>
		<path fill="#AA8E72" d="M243,304.7c-1.4-0.7-2.6-1.9-2.6-3.5c0-2.2,1.7-3.7,4.6-3.7c1,0,1.7,0.3,2.7,0.4c0.2,0.5,0.4,1.6,0.4,2.9
			c-0.1,0.2-0.6,0.3-0.8,0.1c-0.2-1-1-2.5-2.7-2.5s-2.4,1-2.4,2c0,1.1,0.8,1.7,2,2.3l1.8,0.9c1.1,0.5,2.4,1.8,2.4,3.7
			c0,2.3-1.9,3.7-4.8,3.7c-1.8,0-3-0.6-3.4-0.9c-0.3-0.4-0.6-1.5-0.6-3c0.1-0.3,0.6-0.3,0.8-0.1c0.2,1.1,1.5,3.2,3.5,3.2
			c1.5,0,2.5-0.8,2.5-2.1c0-0.9-0.4-1.9-2.1-2.8L243,304.7z"/>
	</g>
</g>
<g>
	<line fill="none" stroke="#C0C0C0" stroke-miterlimit="10" x1="612" y1="336.7" x2="0" y2="336.7"/>
	<line fill="none" stroke="#C0C0C0" stroke-miterlimit="10" x1="612" y1="331.7" x2="0" y2="331.7"/>
</g>
</svg>
